<mxfile host="app.diagrams.net" modified="2021-01-21T12:07:26.311Z" agent="5.0 (Macintosh; Intel Mac OS X 10_15_7) AppleWebKit/537.36 (KHTML, like Gecko) Chrome/87.0.4280.141 Safari/537.36" etag="nt2Qq6zPwigQigr1anUA" version="14.2.6" type="github">
  <diagram name="Page-1" id="42789a77-a242-8287-6e28-9cd8cfd52e62">
    <mxGraphModel dx="946" dy="614" grid="1" gridSize="10" guides="1" tooltips="1" connect="1" arrows="1" fold="1" page="1" pageScale="1" pageWidth="1100" pageHeight="850" background="#ffffff" math="0" shadow="0">
      <root>
        <mxCell id="0" />
        <mxCell id="1" parent="0" />
        <mxCell id="1ea317790d2ca983-12" style="edgeStyle=none;rounded=1;html=1;labelBackgroundColor=none;startArrow=none;startFill=0;startSize=5;endArrow=classicThin;endFill=1;endSize=5;jettySize=auto;orthogonalLoop=1;strokeColor=#d79b00;strokeWidth=1;fontFamily=Comic Sans MS;fontSize=16;fontStyle=1;fillColor=#ffe6cc;" parent="1" source="1ea317790d2ca983-1" target="1ea317790d2ca983-2" edge="1">
          <mxGeometry relative="1" as="geometry" />
        </mxCell>
        <mxCell id="1ea317790d2ca983-1" value="widget" style="ellipse;whiteSpace=wrap;html=1;rounded=0;shadow=1;comic=0;labelBackgroundColor=none;strokeWidth=1;fontFamily=Comic Sans MS;fontSize=16;align=center;fontStyle=1;fillColor=#ffe6cc;strokeColor=#d79b00;" parent="1" vertex="1">
          <mxGeometry x="260" y="130" width="90" height="60" as="geometry" />
        </mxCell>
        <mxCell id="1ea317790d2ca983-21" value="" style="edgeStyle=none;rounded=1;html=1;labelBackgroundColor=none;startArrow=none;startFill=0;startSize=5;endArrow=classicThin;endFill=1;endSize=5;jettySize=auto;orthogonalLoop=1;strokeColor=#d79b00;strokeWidth=1;fontFamily=Comic Sans MS;fontSize=16;fontStyle=1;fillColor=#ffe6cc;" parent="1" source="1ea317790d2ca983-2" edge="1">
          <mxGeometry relative="1" as="geometry">
            <mxPoint x="224.2016018906363" y="372.61640983729126" as="targetPoint" />
          </mxGeometry>
        </mxCell>
        <mxCell id="1ea317790d2ca983-22" value="" style="edgeStyle=none;rounded=1;html=1;labelBackgroundColor=none;startArrow=none;startFill=0;startSize=5;endArrow=classicThin;endFill=1;endSize=5;jettySize=auto;orthogonalLoop=1;strokeColor=#d79b00;strokeWidth=1;fontFamily=Comic Sans MS;fontSize=16;fontStyle=1;fillColor=#ffe6cc;" parent="1" source="1ea317790d2ca983-2" edge="1">
          <mxGeometry relative="1" as="geometry">
            <mxPoint x="381.4991154065842" y="372.3900543788691" as="targetPoint" />
          </mxGeometry>
        </mxCell>
        <mxCell id="1ea317790d2ca983-2" value="&lt;span style=&quot;font-size: 16px;&quot;&gt;widget1&lt;/span&gt;" style="ellipse;whiteSpace=wrap;html=1;rounded=0;shadow=1;comic=0;labelBackgroundColor=none;strokeWidth=1;fontFamily=Comic Sans MS;fontSize=16;align=center;fontStyle=1;fillColor=#ffe6cc;strokeColor=#d79b00;" parent="1" vertex="1">
          <mxGeometry x="267.5" y="240" width="75" height="50" as="geometry" />
        </mxCell>
        <mxCell id="-TsOHf5KGkoLNYjlFkFz-1" value="&lt;span style=&quot;font-size: 16px;&quot;&gt;widget2&lt;/span&gt;" style="ellipse;whiteSpace=wrap;html=1;rounded=0;shadow=1;comic=0;labelBackgroundColor=none;strokeWidth=1;fontFamily=Comic Sans MS;fontSize=16;align=center;fontStyle=1;fillColor=#ffe6cc;strokeColor=#d79b00;" vertex="1" parent="1">
          <mxGeometry x="180" y="370" width="75" height="50" as="geometry" />
        </mxCell>
        <mxCell id="-TsOHf5KGkoLNYjlFkFz-2" value="&lt;span style=&quot;font-size: 16px;&quot;&gt;widget3&lt;/span&gt;" style="ellipse;whiteSpace=wrap;html=1;rounded=0;shadow=1;comic=0;labelBackgroundColor=none;strokeWidth=1;fontFamily=Comic Sans MS;fontSize=16;align=center;fontStyle=1;fillColor=#ffe6cc;strokeColor=#d79b00;" vertex="1" parent="1">
          <mxGeometry x="342.5" y="370" width="75" height="50" as="geometry" />
        </mxCell>
        <mxCell id="-TsOHf5KGkoLNYjlFkFz-3" value="" style="shape=singleArrow;whiteSpace=wrap;html=1;fontSize=16;fontStyle=1;fontFamily=Comic Sans MS;" vertex="1" parent="1">
          <mxGeometry x="440" y="230" width="100" height="60" as="geometry" />
        </mxCell>
        <mxCell id="-TsOHf5KGkoLNYjlFkFz-4" style="edgeStyle=none;rounded=1;html=1;labelBackgroundColor=none;startArrow=none;startFill=0;startSize=5;endArrow=classicThin;endFill=1;endSize=5;jettySize=auto;orthogonalLoop=1;strokeColor=#b85450;strokeWidth=1;fontFamily=Comic Sans MS;fontSize=16;fontStyle=1;fillColor=#f8cecc;" edge="1" parent="1" source="-TsOHf5KGkoLNYjlFkFz-5" target="-TsOHf5KGkoLNYjlFkFz-8">
          <mxGeometry relative="1" as="geometry" />
        </mxCell>
        <mxCell id="-TsOHf5KGkoLNYjlFkFz-20" style="edgeStyle=orthogonalEdgeStyle;rounded=0;orthogonalLoop=1;jettySize=auto;html=1;exitX=0;exitY=0.5;exitDx=0;exitDy=0;entryX=1;entryY=0.5;entryDx=0;entryDy=0;fontFamily=Comic Sans MS;fontSize=16;" edge="1" parent="1" source="-TsOHf5KGkoLNYjlFkFz-5" target="1ea317790d2ca983-1">
          <mxGeometry relative="1" as="geometry" />
        </mxCell>
        <mxCell id="-TsOHf5KGkoLNYjlFkFz-22" value="owner" style="edgeLabel;html=1;align=center;verticalAlign=middle;resizable=0;points=[];fontSize=16;fontFamily=Comic Sans MS;" vertex="1" connectable="0" parent="-TsOHf5KGkoLNYjlFkFz-20">
          <mxGeometry x="-0.1154" y="1" relative="1" as="geometry">
            <mxPoint as="offset" />
          </mxGeometry>
        </mxCell>
        <mxCell id="-TsOHf5KGkoLNYjlFkFz-21" value="owner" style="edgeStyle=orthogonalEdgeStyle;rounded=0;orthogonalLoop=1;jettySize=auto;html=1;exitX=1;exitY=0.5;exitDx=0;exitDy=0;fontFamily=Comic Sans MS;fontSize=16;" edge="1" parent="1" source="-TsOHf5KGkoLNYjlFkFz-5" target="-TsOHf5KGkoLNYjlFkFz-12">
          <mxGeometry relative="1" as="geometry" />
        </mxCell>
        <mxCell id="-TsOHf5KGkoLNYjlFkFz-5" value="element" style="ellipse;whiteSpace=wrap;html=1;rounded=0;shadow=1;comic=0;labelBackgroundColor=none;strokeWidth=1;fontFamily=Comic Sans MS;fontSize=16;align=center;fontStyle=1;fillColor=#f8cecc;strokeColor=#b85450;" vertex="1" parent="1">
          <mxGeometry x="610" y="130" width="90" height="60" as="geometry" />
        </mxCell>
        <mxCell id="-TsOHf5KGkoLNYjlFkFz-6" value="" style="edgeStyle=none;rounded=1;html=1;labelBackgroundColor=none;startArrow=none;startFill=0;startSize=5;endArrow=classicThin;endFill=1;endSize=5;jettySize=auto;orthogonalLoop=1;strokeColor=#b85450;strokeWidth=1;fontFamily=Comic Sans MS;fontSize=16;fontStyle=1;fillColor=#f8cecc;" edge="1" parent="1" source="-TsOHf5KGkoLNYjlFkFz-8">
          <mxGeometry relative="1" as="geometry">
            <mxPoint x="574.2016018906363" y="372.61640983729126" as="targetPoint" />
          </mxGeometry>
        </mxCell>
        <mxCell id="-TsOHf5KGkoLNYjlFkFz-7" value="" style="edgeStyle=none;rounded=1;html=1;labelBackgroundColor=none;startArrow=none;startFill=0;startSize=5;endArrow=classicThin;endFill=1;endSize=5;jettySize=auto;orthogonalLoop=1;strokeColor=#b85450;strokeWidth=1;fontFamily=Comic Sans MS;fontSize=16;fontStyle=1;fillColor=#f8cecc;" edge="1" parent="1" source="-TsOHf5KGkoLNYjlFkFz-8">
          <mxGeometry relative="1" as="geometry">
            <mxPoint x="731.4991154065842" y="372.3900543788691" as="targetPoint" />
          </mxGeometry>
        </mxCell>
        <mxCell id="-TsOHf5KGkoLNYjlFkFz-8" value="&lt;span style=&quot;font-size: 16px;&quot;&gt;element1&lt;/span&gt;" style="ellipse;whiteSpace=wrap;html=1;rounded=0;shadow=1;comic=0;labelBackgroundColor=none;strokeWidth=1;fontFamily=Comic Sans MS;fontSize=16;align=center;fontStyle=1;fillColor=#f8cecc;strokeColor=#b85450;" vertex="1" parent="1">
          <mxGeometry x="617.5" y="240" width="75" height="50" as="geometry" />
        </mxCell>
        <mxCell id="-TsOHf5KGkoLNYjlFkFz-9" value="&lt;span style=&quot;font-size: 16px;&quot;&gt;element2&lt;/span&gt;" style="ellipse;whiteSpace=wrap;html=1;rounded=0;shadow=1;comic=0;labelBackgroundColor=none;strokeWidth=1;fontFamily=Comic Sans MS;fontSize=16;align=center;fontStyle=1;fillColor=#f8cecc;strokeColor=#b85450;" vertex="1" parent="1">
          <mxGeometry x="530" y="370" width="75" height="50" as="geometry" />
        </mxCell>
        <mxCell id="-TsOHf5KGkoLNYjlFkFz-10" value="&lt;span style=&quot;font-size: 16px;&quot;&gt;element3&lt;/span&gt;" style="ellipse;whiteSpace=wrap;html=1;rounded=0;shadow=1;comic=0;labelBackgroundColor=none;strokeWidth=1;fontFamily=Comic Sans MS;fontSize=16;align=center;fontStyle=1;fillColor=#f8cecc;strokeColor=#b85450;" vertex="1" parent="1">
          <mxGeometry x="692.5" y="370" width="75" height="50" as="geometry" />
        </mxCell>
        <mxCell id="-TsOHf5KGkoLNYjlFkFz-11" style="edgeStyle=none;rounded=1;html=1;labelBackgroundColor=none;startArrow=none;startFill=0;startSize=5;endArrow=classicThin;endFill=1;endSize=5;jettySize=auto;orthogonalLoop=1;strokeColor=#9673a6;strokeWidth=1;fontFamily=Comic Sans MS;fontSize=16;fontStyle=1;fillColor=#e1d5e7;" edge="1" parent="1" source="-TsOHf5KGkoLNYjlFkFz-12" target="-TsOHf5KGkoLNYjlFkFz-15">
          <mxGeometry relative="1" as="geometry" />
        </mxCell>
        <mxCell id="-TsOHf5KGkoLNYjlFkFz-12" value="render" style="ellipse;whiteSpace=wrap;html=1;rounded=0;shadow=1;comic=0;labelBackgroundColor=none;strokeWidth=1;fontFamily=Comic Sans MS;fontSize=16;align=center;fontStyle=1;fillColor=#e1d5e7;strokeColor=#9673a6;" vertex="1" parent="1">
          <mxGeometry x="930" y="130" width="90" height="60" as="geometry" />
        </mxCell>
        <mxCell id="-TsOHf5KGkoLNYjlFkFz-13" value="" style="edgeStyle=none;rounded=1;html=1;labelBackgroundColor=none;startArrow=none;startFill=0;startSize=5;endArrow=classicThin;endFill=1;endSize=5;jettySize=auto;orthogonalLoop=1;strokeColor=#9673a6;strokeWidth=1;fontFamily=Comic Sans MS;fontSize=16;fontStyle=1;fillColor=#e1d5e7;" edge="1" parent="1" source="-TsOHf5KGkoLNYjlFkFz-15">
          <mxGeometry relative="1" as="geometry">
            <mxPoint x="894.2016018906363" y="372.61640983729126" as="targetPoint" />
          </mxGeometry>
        </mxCell>
        <mxCell id="-TsOHf5KGkoLNYjlFkFz-14" value="" style="edgeStyle=none;rounded=1;html=1;labelBackgroundColor=none;startArrow=none;startFill=0;startSize=5;endArrow=classicThin;endFill=1;endSize=5;jettySize=auto;orthogonalLoop=1;strokeColor=#9673a6;strokeWidth=1;fontFamily=Comic Sans MS;fontSize=16;fontStyle=1;fillColor=#e1d5e7;" edge="1" parent="1" source="-TsOHf5KGkoLNYjlFkFz-15">
          <mxGeometry relative="1" as="geometry">
            <mxPoint x="1051.4991154065842" y="372.3900543788691" as="targetPoint" />
          </mxGeometry>
        </mxCell>
        <mxCell id="-TsOHf5KGkoLNYjlFkFz-15" value="&lt;span style=&quot;font-size: 16px;&quot;&gt;render1&lt;/span&gt;" style="ellipse;whiteSpace=wrap;html=1;rounded=0;shadow=1;comic=0;labelBackgroundColor=none;strokeWidth=1;fontFamily=Comic Sans MS;fontSize=16;align=center;fontStyle=1;fillColor=#e1d5e7;strokeColor=#9673a6;" vertex="1" parent="1">
          <mxGeometry x="937.5" y="240" width="75" height="50" as="geometry" />
        </mxCell>
        <mxCell id="-TsOHf5KGkoLNYjlFkFz-16" value="&lt;span style=&quot;font-size: 16px;&quot;&gt;render2&lt;/span&gt;" style="ellipse;whiteSpace=wrap;html=1;rounded=0;shadow=1;comic=0;labelBackgroundColor=none;strokeWidth=1;fontFamily=Comic Sans MS;fontSize=16;align=center;fontStyle=1;fillColor=#e1d5e7;strokeColor=#9673a6;" vertex="1" parent="1">
          <mxGeometry x="850" y="370" width="75" height="50" as="geometry" />
        </mxCell>
        <mxCell id="-TsOHf5KGkoLNYjlFkFz-17" value="&lt;span style=&quot;font-size: 16px;&quot;&gt;render3&lt;/span&gt;" style="ellipse;whiteSpace=wrap;html=1;rounded=0;shadow=1;comic=0;labelBackgroundColor=none;strokeWidth=1;fontFamily=Comic Sans MS;fontSize=16;align=center;fontStyle=1;fillColor=#e1d5e7;strokeColor=#9673a6;" vertex="1" parent="1">
          <mxGeometry x="1012.5" y="370" width="75" height="50" as="geometry" />
        </mxCell>
        <mxCell id="-TsOHf5KGkoLNYjlFkFz-18" value="" style="shape=singleArrow;whiteSpace=wrap;html=1;fontSize=16;fontStyle=1;fontFamily=Comic Sans MS;" vertex="1" parent="1">
          <mxGeometry x="767.5" y="230" width="100" height="60" as="geometry" />
        </mxCell>
      </root>
    </mxGraphModel>
  </diagram>
</mxfile>
